# xmcd
#
# Track frame offsets:
# 150
# 12422
# 23757
# 38632
# 51387
# 66482
# 78162
# 88712
# 100192
# 114085
# 122510
# 134095
# 146142
# 154932
#
# Disc length: 2288 seconds
#
#
# Revision: 0
# Processed by: cddbd v1.5.2PL0 Copyright (c) Steve Scherf et al.
# Submitted via: FreeRIP 2.70 
#
DISCID=bb08ee0e
DTITLE=Vários - Homenagem a Antonio Carlos Jobim - Instrumental 3
DYEAR=1900
DGENRE=MPB
TTITLE0=Esse Seu Olhar (Cid Gray e sua Orquestra)
TTITLE1=Garota de Ipanema (Luiz Loy e seu Conjunto)
TTITLE2=Só Tinha de Ser com Você/Vivo Sonhando (Toquinho)
TTITLE3=O Nosso Amor (Ely Arcoverde)
TTITLE4=O Amor em Paz (Zimbo Trio)
TTITLE5=Samba Torto (Manfredo Fest e seu Conjunto)
TTITLE6=Brigas Nunca Mais (Paulinho Nogueira)
TTITLE7=Samba de uma Nota Só (Simonetti e sua Orquestra)
TTITLE8=Descendo o Morro (Mr. Samba e seus Skindôs Rítmicos)
TTITLE9=Foi a Noite (Mr. Samba e seus Skindôs Rítmicos)
TTITLE10=Inútil Paisagem (Zimbo Trio)
TTITLE11=Outra Vez (Manfredo Fest e seu Conjunto)
TTITLE12=Chega de Saudade (Gaúcho e seu Conjunto)
TTITLE13=O Morro Não Tem Vez (Sambalanço Trio)
EXTD=
EXTT0=
EXTT1=
EXTT2=
EXTT3=
EXTT4=
EXTT5=
EXTT6=
EXTT7=
EXTT8=
EXTT9=
EXTT10=
EXTT11=
EXTT12=
EXTT13=
PLAYORDER=
